<?xml version="1.0" encoding="UTF-8"?>
<svg id="Layer_1" xmlns="http://www.w3.org/2000/svg" version="1.1" viewBox="0 0 633.32 91.69">
  <!-- Generator: Adobe Illustrator 30.2.1, SVG Export Plug-In . SVG Version: 2.1.1 Build 1)  -->
  <defs>
    <style>
      .st0 {
        fill: #fff;
      }

      .st1 {
        fill: #cf202f;
      }

      .st2 {
        fill: #0a5fab;
      }

      .st3 {
        fill: #e31d38;
      }
    </style>
  </defs>
  <path class="st2" d="M344.22,10.72h-4v70.25h4V10.72Z"/>
  <g>
    <path class="st2" d="M395.05,33.95c-1.38-1.44-3.01-2.54-4.9-3.3-1.88-.77-3.95-1.15-6.23-1.15h-10.34v34.12h10.2c2.33,0,4.45-.38,6.35-1.15,1.91-.77,3.55-1.86,4.92-3.28,1.39-1.42,2.45-3.12,3.19-5.11.75-2,1.12-4.22,1.12-6.66v-1.71c0-2.45-.38-4.67-1.12-6.66-.73-1.98-1.8-3.69-3.19-5.11ZM392.84,47.43c0,2.33-.34,4.33-1.03,6-.69,1.66-1.7,2.93-3.05,3.82-1.34.88-3.01,1.31-4.99,1.31h-3.75v-23.98h3.89c1.44,0,2.71.24,3.82.73,1.11.48,2.04,1.2,2.79,2.13.77.94,1.34,2.09,1.73,3.47.39,1.37.59,2.96.59,4.76v1.76Z"/>
    <path class="st2" d="M423.26,41.24c-.92-1.09-2.07-1.94-3.45-2.53-1.38-.61-2.96-.91-4.76-.91s-3.32.31-4.76.94c-1.44.62-2.67,1.52-3.7,2.67-1.03,1.16-1.83,2.54-2.39,4.15-.56,1.59-.84,3.37-.84,5.32v.94c0,1.72.28,3.33.84,4.83.58,1.48,1.4,2.79,2.46,3.91,1.08,1.11,2.38,1.98,3.91,2.6,1.53.62,3.26.94,5.18.94,1.66,0,3.12-.22,4.38-.66,1.27-.45,2.34-1.04,3.23-1.76.91-.72,1.63-1.47,2.16-2.25l-3.12-3.23c-.78,1-1.7,1.76-2.77,2.27-1.05.5-2.22.75-3.52.75-1.03,0-1.95-.18-2.77-.54-.8-.38-1.48-.89-2.06-1.55-.56-.67-.99-1.46-1.29-2.37-.19-.61-.29-1.27-.35-1.95h16.38v-2.6c0-1.84-.23-3.52-.7-5.04-.47-1.53-1.16-2.84-2.09-3.94ZM419.96,48.55h-10.19c.05-.34.09-.69.16-1.01.22-1,.55-1.86.98-2.58.45-.73,1.02-1.3,1.69-1.69.69-.41,1.49-.61,2.41-.61,1.14,0,2.07.25,2.79.75.72.48,1.25,1.14,1.59,1.97.34.81.53,1.71.56,2.7v.47Z"/>
    <path class="st2" d="M475.86,33.95c-1.38-1.44-3.01-2.54-4.9-3.3-1.88-.77-3.95-1.15-6.23-1.15h-10.34v34.12h10.2c2.33,0,4.45-.38,6.35-1.15,1.91-.77,3.55-1.86,4.92-3.28,1.39-1.42,2.45-3.12,3.19-5.11.75-2,1.12-4.22,1.12-6.66v-1.71c0-2.45-.38-4.67-1.12-6.66-.73-1.98-1.8-3.69-3.19-5.11ZM473.66,47.43c0,2.33-.34,4.33-1.03,6-.69,1.66-1.7,2.93-3.05,3.82-1.34.88-3.01,1.31-4.99,1.31h-3.75v-23.98h3.89c1.44,0,2.71.24,3.82.73,1.11.48,2.04,1.2,2.79,2.13.77.94,1.34,2.09,1.73,3.47s.59,2.96.59,4.76v1.76Z"/>
    <polygon class="st2" points="439.11 56.06 433.98 38.26 427.48 38.26 436.2 63.62 438.03 63.62 440.16 63.62 441.97 63.62 450.66 38.26 444.19 38.26 439.11 56.06"/>
    <path class="st2" d="M517.69,47.66c.16-.94.42-1.78.8-2.53.39-.77.93-1.37,1.62-1.8.7-.44,1.58-.66,2.62-.66.98,0,1.82.22,2.51.66.69.44,1.22,1.02,1.59,1.73.38.72.58,1.53.61,2.44h5.84c-.03-1.97-.49-3.68-1.38-5.13-.88-1.45-2.09-2.58-3.66-3.37-1.55-.8-3.34-1.2-5.39-1.2-1.94,0-3.63.33-5.09.98-1.45.66-2.66,1.57-3.63,2.74-.95,1.17-1.67,2.53-2.16,4.08-.47,1.55-.7,3.2-.7,4.97v.75c0,1.77.23,3.42.7,4.97.48,1.55,1.2,2.91,2.16,4.08.97,1.17,2.18,2.09,3.63,2.74,1.45.66,3.16.98,5.11.98s3.66-.39,5.2-1.17c1.56-.8,2.81-1.88,3.75-3.23.94-1.36,1.42-2.9,1.45-4.62h-5.84c-.03.83-.26,1.55-.68,2.18-.41.62-.95,1.11-1.64,1.45-.69.34-1.47.52-2.34.52-1.08,0-1.97-.22-2.67-.66-.69-.44-1.23-1.02-1.62-1.76-.38-.75-.64-1.59-.8-2.53-.14-.94-.21-1.92-.21-2.95v-.75c0-1.02.07-1.98.21-2.91Z"/>
    <polygon class="st2" points="553.16 63.62 560.33 63.62 550.11 48.79 559.48 38.26 552.01 38.26 545.12 46.11 543.59 48.03 543.59 27.6 537.41 27.6 537.41 63.62 543.59 63.62 543.59 55.59 546.11 53.03 553.16 63.62"/>
    <path class="st2" d="M504.76,41.47c-1.02-1.16-2.27-2.05-3.75-2.7-1.47-.66-3.16-.98-5.06-.98s-3.55.33-5.02.98c-1.47.64-2.71,1.54-3.73,2.7-1.02,1.16-1.79,2.52-2.32,4.1-.53,1.56-.8,3.27-.8,5.13v.49c0,1.84.27,3.55.8,5.13.53,1.56,1.3,2.93,2.32,4.1,1.02,1.16,2.27,2.05,3.75,2.7,1.48.64,3.16.96,5.04.96s3.57-.32,5.04-.96c1.47-.64,2.71-1.54,3.73-2.7,1.02-1.17,1.79-2.54,2.32-4.1.53-1.58.8-3.29.8-5.13v-.49c0-1.86-.27-3.57-.8-5.13-.53-1.58-1.3-2.95-2.32-4.1ZM501.69,51.2c0,1.11-.11,2.15-.33,3.12s-.56,1.82-1.03,2.55c-.45.73-1.04,1.31-1.76,1.73-.72.41-1.58.61-2.58.61s-1.89-.2-2.62-.61c-.72-.42-1.3-1-1.76-1.73-.45-.73-.79-1.59-1.01-2.55s-.33-2.01-.33-3.12v-.49c0-1.09.11-2.12.33-3.07.22-.97.55-1.82,1.01-2.55.45-.75,1.04-1.34,1.76-1.76.72-.44,1.58-.66,2.58-.66s1.88.22,2.6.66c.73.42,1.33,1.01,1.78,1.76.47.73.81,1.59,1.03,2.55.22.95.33,1.98.33,3.07v.49Z"/>
  </g>
  <g>
    <path class="st0" d="M46.41,0c5.94-.01,11.85.81,17.56,2.43l3.2.92-2.82,17.18c7.25-6.12,17.46-9.86,28.78-9.86s20.37,3.7,25.68,10.16c.45.52.85,1.1,1.23,1.67,5.89-7.77,17.13-11.82,27.52-11.82,5.1-.07,10.16.85,14.91,2.7l.63-2h50.45l-1.88,6.2c6.85-4.49,14.85-6.89,23.03-6.9,4.83,0,9.63.69,14.26,2.05l3.14.94-1.15,7.44c7.27-6.45,17.76-10.43,29.41-10.43,11.02,0,20.39,3.7,25.69,10.16h.04c4.12,5.03,5.69,11.69,4.26,18.04-1.11,5.53-3.82,10.61-7.8,14.61.37.28.7.6,1,.95,1.14,1.38,1.6,3.21,1.26,4.97-.31,1.49-1.09,2.84-2.23,3.84h1.39l-2.49,13.14h-.65l-.34,1.81h.91l-2.49,13.14h-50.1l-.35-2.55h-1.15l-1.15,2.56h-16.21c-1.21.21-2.44.32-3.67.32-2.03-.02-4.05-.26-6.03-.71l-.07.38h-42.57l.31-1.71c-3.05,1.38-6.37,2.08-9.72,2.06-3.55.11-7.07-.81-10.11-2.65l-.44,2.3h-30.36l.54-2.98-1.82,2.98h-13.43v-.34l-.17.34H.8v-28.08h21.94c-6.66-1.5-12.67-5.11-17.14-10.28C.83,47.15-1.03,39.46.55,32.09,4.19,14.1,24.31,0,46.41,0ZM170.83,77.28c-.45,0-.88.16-1.23.44.44,0,.88-.16,1.23-.44ZM186.65,63.25h12.85l-2.65,13.97h1.58l2.65-13.97h11.33c-4.18-1.49-7.9-4.06-10.79-7.44-4.12-5.04-5.74-11.68-4.39-18.05.29-1.42.7-2.82,1.22-4.17l-2.74-.1-9.06,29.77ZM277.87,65l-2.29,12.22h1.54l2.34-12.45-1.58.23ZM260.75,67.86l.65-3.45h0c-.54-.13-1.06-.25-1.57-.39l.92,3.84ZM242.73,62.69l-1.93.7c-.66.23-1.33.43-2.01.59.99.33,1.95.74,2.87,1.24l1.38.77,1.65-2.73h12.62c-4.61-1.44-8.74-4.15-11.91-7.81-.29-.35-.53-.71-.78-1.07l-1.89,8.3ZM182.43,65.78h.01s0,0-.01,0h0ZM180.53,64.7c.66.31,1.3.67,1.9,1.07l.21-1.07h-2.11ZM162.68,65.01l.69-.3h-.63l-.06.3ZM124.17,64.78l.08-.17h.02s-.1-.01-.1-.01v.18ZM107.9,59.2c-2.86,1.69-5.91,3.03-9.09,4h11.74l.09,1.46.73-1.46h6.78c-2.25-.6-4.46-1.37-6.6-2.3l-3.65-1.64v-.06ZM55.64,61.51l-1.94.69v.03c-1.34.45-2.72.8-4.13,1.05h20.49c-4.61-1.45-8.74-4.16-11.91-7.82-.3-.39-.55-.78-.83-1.15l-1.69,7.2ZM161.52,53.59c-3.27,4.58-8.43,7.76-14.16,9.67h11.24l2.92-9.67ZM290.87,61.43c-1.57.7-3.18,1.31-4.83,1.82l5.99-.02c-.08-.09-.2-.17-.26-.26-.37-.46-.67-.98-.89-1.53ZM94.65,34.75c-1.2-1.13-2.82-1.69-4.46-1.54-4.82,0-7.91,2.96-8.47,5.88-.27.96-.09,1.99.49,2.79,1.25,1.17,2.94,1.75,4.64,1.58,4.32,0,7.8-2.36,8.45-5.75l-.09-.06c.26-1,.05-2.07-.56-2.9ZM281.92,34.8c-1.2-1.13-2.82-1.69-4.46-1.54h-.02c-4.82,0-7.91,2.96-8.47,5.88-.27.96-.09,1.98.48,2.79,1.24,1.14,2.91,1.69,4.59,1.53,4.32,0,7.8-2.37,8.45-5.75.26-1,.05-2.07-.56-2.91ZM234.12,32.89c-4.22,0-8.45,2.75-9.06,5.88-.19.86.03,1.77.61,2.44,1.4,1.4,3.33,2.13,5.31,2,3.57-.06,7.04-1.23,9.93-3.33.08-.79.18-1.6.35-2.42.11-.56.27-1.15.42-1.71-2.12-1.8-4.79-2.8-7.56-2.85ZM161.24,33.83c.65.62,1.24,1.31,1.74,2.05,1.21,1.78,1.91,3.86,2.05,6l2.49-8.29-6.29.24ZM45.74,25.3c-5.78,0-11.37,3.55-12.21,7.76-.27,1.22.04,2.5.86,3.45,1.44,1.77,4.22,2.83,7.43,2.83h0c4.56-.05,9.01-1.48,12.76-4.08.54-1.9,1.28-3.74,2.21-5.49-3.01-2.8-6.95-4.39-11.05-4.47ZM167.53,33.59h0s0,0,0,0Z"/>
    <path class="st2" d="M107.03,67.01l.78,12.28h.19c.39-1.3.88-2.57,1.47-3.79l4.22-8.49h6.88l1.03,12.28h.19c.35-1.24.78-2.45,1.31-3.62l4.12-8.65h9.31l-12.61,20.57h-7.81l-.65-11.21h-.3c-.25,1.07-.6,2.11-1.04,3.12l-4.01,8.05h-7.62l-4.72-20.54h9.28Z"/>
    <path class="st2" d="M135.86,67.01h8.61l-1.31,6.93h5.48l1.32-6.93h8.62l-3.9,20.58h-8.62l1.35-7.15h-5.49l-1.35,7.15h-8.61l3.9-20.58h0Z"/>
    <path class="st2" d="M172.22,66.65c7.48,0,12.82,4.21,11.59,10.67v.03c-1.24,6.6-8.09,10.52-15.61,10.52s-12.86-3.96-11.61-10.56c1.25-6.6,8.16-10.67,15.64-10.67ZM170.94,73.46c-2.52-.13-4.77,1.56-5.37,4.01h.01c-.45,2.3,1.15,3.96,3.85,3.96,2.51.16,4.76-1.51,5.35-3.96.41-2.18-1.01-4.01-3.85-4.01Z"/>
    <path class="st2" d="M185.78,67.01h8.95l-2.65,13.97h7.51l-1.25,6.61h-16.46l3.9-20.58h0Z"/>
    <path class="st2" d="M220.76,80.22l.4.3c1.49,1.18,3.33,1.84,5.23,1.89.88,0,2.29-.3,2.52-1.23.23-.93-.99-1.01-1.78-1.15l-1.74-.28c-3.44-.52-6.01-2.23-5.4-5.46.93-4.88,6.76-7.61,12.12-7.61,2.6-.06,5.18.56,7.46,1.81l-3.44,5.27c-1.44-.98-3.14-1.52-4.88-1.55-.78,0-1.97.25-2.13,1.09-.16.84.95.87,1.6,1.01l1.95.38c3.66.71,6.08,2.4,5.41,5.9-.93,4.91-6.74,7.34-12.07,7.34-3.13,0-6.23-.65-9.1-1.89l3.84-5.81h.01Z"/>
    <path class="st2" d="M261.49,87.6h-9.48l-.33-2.56h-6.75l-1.2,2.56h-9.47l12.46-20.57h9.9l4.88,20.57ZM247.92,80.16h3.58s-.35-3.63-.35-3.63c-.07-.88-.1-1.76-.08-2.65h-.32l-2.82,6.28Z"/>
    <path class="st2" d="M264.63,67.01h8.94l-2.65,13.97h7.51l-1.24,6.61h-16.46l3.9-20.58h0Z"/>
    <path class="st2" d="M282.74,67.01h16.56l-1.07,5.62h-7.55l-.37,1.97h6.89l-1.02,5.35h-6.89l-.38,2.02h7.81l-1.07,5.62h-16.82l3.9-20.58h0Z"/>
    <path class="st3" d="M161.35,30.04l11.3-.43-9.48,31.33h20.27l9.48-31.33,11.03.43,4.51-14.87h-42.6l-4.51,14.87h0Z"/>
    <path class="st3" d="M93.13,14.43c16.95,0,29.04,9.35,26.27,23.74h-.01c-2.79,14.69-18.36,23.49-35.37,23.49s-29.14-8.81-26.31-23.49c2.72-14.39,18.48-23.74,35.43-23.74ZM90.27,29.49c-6.41,0-11.26,4.07-12.2,8.95l.05-.02c-1.01,5.22,2.59,8.8,8.72,8.8s11.12-3.58,12.13-8.8c.94-4.85-2.29-8.92-8.7-8.92Z"/>
    <path class="st3" d="M113.09,57.48c6.53,2.76,13.55,4.18,20.64,4.19,12.06,0,25.22-5.4,27.33-16.33,1.5-7.77-3.98-11.5-12.26-13.11l-4.43-.85c-1.49-.31-3.97-.55-3.63-2.3.35-1.89,3.05-2.43,4.83-2.43,3.95.06,7.8,1.26,11.09,3.45l7.73-11.72c-5.18-2.73-10.98-4.09-16.83-3.94-12.13,0-25.36,6.07-27.46,16.94-1.39,7.16,4.59,10.98,12.23,12.14l3.96.61c1.79.3,4.41.48,4.02,2.55-.39,2.07-3.72,2.73-5.73,2.73-4.29-.1-8.44-1.57-11.84-4.19l-.91-.67-8.74,12.93Z"/>
    <path class="st3" d="M247.91,16.31c-4.3-1.25-8.75-1.88-13.22-1.87-16.35,0-31.21,10.68-33.79,24.03-2.52,13.05,7.96,23.2,23.86,23.2,3.62,0,11.27-.54,14.78-1.82l3.9-17.12c-3.6,2.69-7.95,4.18-12.44,4.25-6.07,0-10.57-3.89-9.6-8.92.98-5.04,6.68-8.92,12.75-8.92,4.12.09,8.05,1.74,11.02,4.6l2.77-17.42h-.03Z"/>
    <path class="st3" d="M280.41,14.43c16.95,0,29.04,9.35,26.27,23.74-2.83,14.7-18.3,23.49-35.37,23.49-17.07,0-29.2-8.8-26.37-23.49,2.79-14.39,18.49-23.74,35.43-23.74h.04ZM277.46,29.49c-6.42,0-11.21,4.07-12.15,8.92-1.01,5.22,2.58,8.8,8.73,8.8,6.14,0,11.12-3.58,12.13-8.8.95-4.85-2.26-8.92-8.7-8.92Z"/>
    <path class="st3" d="M62.93,6.04c-5.38-1.53-10.93-2.3-16.52-2.3-20.39.02-38.91,12.94-42.17,29.08-3.11,15.78,9.95,28.04,29.81,28.04,4.52,0,14.07-.66,18.42-2.2l4.86-20.7c-4.52,3.26-9.93,5.06-15.5,5.14-7.57,0-13.18-4.7-11.97-10.79,1.22-6.08,8.32-10.79,15.89-10.79,5.11.1,10.01,2.09,13.76,5.58l3.44-21.07h-.02Z"/>
    <path class="st1" d="M298.17,55.82c1.93,0,3.22,1.29,2.92,2.89-.52,1.77-2.17,2.96-4.01,2.9-1.94,0-3.22-1.29-2.92-2.9.53-1.77,2.18-2.95,4.01-2.89ZM298.03,56.57c-1.38-.11-2.63.79-2.96,2.14-.25,1.29.64,2.14,2.16,2.14,1.37.1,2.62-.8,2.97-2.14h-.01c.24-1.29-.68-2.14-2.16-2.14ZM298.19,57.2c.78,0,1.15.22,1.05.93-.09.47-.5.81-.97.82l.64,1.28h-.91l-.56-1.28h-.59l-.24,1.28h-.76l.57-3.02h1.75ZM297.86,57.78h-.83l-.11.59h.84c.38,0,.71,0,.77-.32.06-.32-.28-.26-.66-.26Z"/>
    <path class="st2" d="M5.7,87.63h94.85v-.03h-.08l-1.2-5.23H5.7v5.27h0Z"/>
    <path class="st2" d="M5.7,80.14h93.06l-1.22-5.26H5.7v5.26h0Z"/>
    <path class="st2" d="M5.7,72.63h91.31l-.41-1.92-.84-3.66H5.7v5.58h0Z"/>
    <path class="st2" d="M203.91,67.01h16.56l-1.07,5.62h-7.54l-.37,1.97h6.88l-1.01,5.35h-6.89l-.38,2.02h7.81l-1.07,5.62h-16.82l3.9-20.58h0Z"/>
  </g>
</svg>